<?xml version="1.0" encoding="UTF-8" standalone="no"?>
<!DOCTYPE svg PUBLIC "-//W3C//DTD SVG 1.1//EN" "http://www.w3.org/Graphics/SVG/1.1/DTD/svg11.dtd">
<!--svg xmlns:xlink="http://www.w3.org/1999/xlink"  747x798 height="281px" version="1.1" viewBox="0 0 839 281" width="839px" x="0px" y="0px" xmlns="http://www.w3.org/2000/svg"-->
<svg xmlns:xlink="http://www.w3.org/1999/xlink" height="798px" version="1.1" viewBox="-161 10 1000 291" width="747px" x="0px" y="0px" xmlns="http://www.w3.org/2000/svg">
  <path d="M11,0 L0.0,61 L76.0,11 Z" style="fill:rgb(0,0,0);stroke:none;"/>
  <path d="M0,61 L76.0,11 L69.0,41 Z" style="fill:rgb(0,0,0);stroke:none;"/>
  <path d="M0,61 L70.0,40 L35.0,65 Z" style="fill:rgb(0,0,0);stroke:none;"/>
  <path d="M68,39 L35.0,65 L61.0,74 Z" style="fill:rgb(0,0,0);stroke:none;"/>
  <path d="M35,65 L62.0,72 L29.0,96 Z" style="fill:rgb(8,3,0);stroke:none;"/>
  <path d="M62,71 L29.0,96 L56.0,101 Z" style="fill:rgb(0,0,0);stroke:none;"/>
  <path d="M60,71 L56.0,101 L99.0,79 Z" style="fill:rgb(0,0,0);stroke:none;"/>
  <path d="M58,73 L97.0,80 L103.0,41 Z" style="fill:rgb(255,255,255);stroke:none;"/>
  <path d="M56,101 L98.0,77 L93.0,109 Z" style="fill:rgb(0,0,0);stroke:none;"/>
  <path d="M56,101 L94.0,107 L55.0,131 Z" style="fill:rgb(0,0,0);stroke:none;"/>
  <path d="M93,106 L55.0,131 L84.0,142 Z" style="fill:rgb(0,0,0);stroke:none;"/>
  <path d="M59,75 L104.0,42 L66.0,40 Z" style="fill:rgb(255,255,255);stroke:none;"/>
  <path d="M95,81 L101.0,42 L139.0,50 Z" style="fill:rgb(0,0,0);stroke:none;"/>
  <path d="M104,44 L66.0,42 L76.0,11 Z" style="fill:rgb(0,0,0);stroke:none;"/>
  <path d="M101,45 L76.0,11 L149.0,26 Z" style="fill:rgb(0,0,0);stroke:none;"/>
  <path d="M99,44 L149.0,26 L137.0,52 Z" style="fill:rgb(0,0,0);stroke:none;"/>
  <path d="M149,26 L133.0,52 L215.0,39 Z" style="fill:rgb(0,0,0);stroke:none;"/>
  <path d="M135,49 L158.0,94 L168.0,55 Z" style="fill:rgb(255,255,255);stroke:none;"/>
  <path d="M136,48 L159.0,93 L128.0,89 Z" style="fill:rgb(255,255,255);stroke:none;"/>
  <path d="M166,53 L156.0,92 L193.0,99 Z" style="fill:rgb(0,0,0);stroke:none;"/>
  <path d="M138,49 L130.0,89 L94.0,80 Z" style="fill:rgb(0,0,0);stroke:none;"/>
  <path d="M160,91 L128.0,87 L122.0,113 Z" style="fill:rgb(0,0,0);stroke:none;"/>
  <path d="M133,51 L166.0,57 L215.0,39 Z" style="fill:rgb(0,0,0);stroke:none;"/>
  <path d="M131,87 L95.0,78 L90.0,109 Z" style="fill:rgb(255,255,255);stroke:none;"/>
  <path d="M130,86 L89.0,108 L124.0,113 Z" style="fill:rgb(255,255,255);stroke:none;"/>
  <path d="M90,106 L125.0,111 L116.0,150 Z" style="fill:rgb(0,0,0);stroke:none;"/>
  <path d="M91,105 L117.0,149 L84.0,142 Z" style="fill:rgb(0,0,0);stroke:none;"/>
  <path d="M118,146 L84.0,142 L82.0,170 Z" style="fill:rgb(0,0,0);stroke:none;"/>
  <path d="M115,145 L82.0,170 L150.0,180 Z" style="fill:rgb(0,0,0);stroke:none;"/>
  <path d="M113,146 L150.0,180 L152.0,153 Z" style="fill:rgb(0,0,0);stroke:none;"/>
  <path d="M113,148 L152.0,155 L157.0,120 Z" style="fill:rgb(255,255,255);stroke:none;"/>
  <path d="M114,149 L157.0,121 L123.0,110 Z" style="fill:rgb(255,255,255);stroke:none;"/>
  <path d="M156,123 L121.0,112 L159.0,89 Z" style="fill:rgb(0,0,0);stroke:none;"/>
  <path d="M154,123 L157.0,90 L194.0,97 Z" style="fill:rgb(255,255,255);stroke:none;"/>
  <path d="M153,122 L193.0,96 L184.0,130 Z" style="fill:rgb(255,255,255);stroke:none;"/>
  <path d="M154,120 L186.0,128 L149.0,156 Z" style="fill:rgb(0,0,0);stroke:none;"/>
  <path d="M190,95 L182.0,130 L223.0,129 Z" style="fill:rgb(0,0,0);stroke:none;"/>
  <path d="M185,127 L149.0,155 L178.0,162 Z" style="fill:rgb(0,0,0);stroke:none;"/>
  <path d="M183,126 L176.0,162 L218.0,165 Z" style="fill:rgb(255,255,255);stroke:none;"/>
  <path d="M150,153 L180.0,161 L150.0,180 Z" style="fill:rgb(0,0,0);stroke:none;"/>
  <path d="M178,159 L150.0,180 L214.0,194 Z" style="fill:rgb(0,0,0);stroke:none;"/>
  <path d="M175,160 L214.0,194 L217.0,162 Z" style="fill:rgb(0,0,0);stroke:none;"/>
  <path d="M189,98 L222.0,132 L215.0,39 Z" style="fill:rgb(0,0,0);stroke:none;"/>
  <path d="M191,101 L215.0,39 L164.0,55 Z" style="fill:rgb(0,0,0);stroke:none;"/>
  <path d="M210,131 L390.0,69 L386.0,97 Z" style="fill:rgb(0,0,0);stroke:none;"/>
  <path d="M216,133 L390.0,69 L215.0,39 Z" style="fill:rgb(0,0,0);stroke:none;"/>
  <path d="M211,129 L386.0,97 L377.0,129 Z" style="fill:rgb(0,0,0);stroke:none;"/>
  <path d="M390,69 L386.0,97 L459.0,79 Z" style="fill:rgb(0,0,0);stroke:none;"/>
  <path d="M212,127 L377.0,129 L347.0,154 Z" style="fill:rgb(0,0,0);stroke:none;"/>
  <path d="M213,126 L347.0,154 L345.0,182 Z" style="fill:rgb(0,0,0);stroke:none;"/>
  <path d="M377,129 L347.0,154 L374.0,155 Z" style="fill:rgb(0,0,0);stroke:none;"/>
  <path d="M214,125 L345.0,182 L308.0,182 Z" style="fill:rgb(0,0,0);stroke:none;"/>
  <path d="M216,124 L308.0,182 L305.0,211 Z" style="fill:rgb(0,0,0);stroke:none;"/>
  <path d="M217,123 L305.0,211 L256.0,200 Z" style="fill:rgb(0,0,0);stroke:none;"/>
  <path d="M220,125 L256.0,200 L214.0,163 Z" style="fill:rgb(0,0,0);stroke:none;"/>
  <path d="M223,127 L217.0,166 L181.0,127 Z" style="fill:rgb(255,255,255);stroke:none;"/>
  <path d="M256,200 L214.0,161 L214.0,194 Z" style="fill:rgb(0,0,0);stroke:none;"/>
  <path d="M386,97 L459.0,79 L457.0,107 Z" style="fill:rgb(0,0,0);stroke:none;"/>
  <path d="M459,79 L457.0,107 L528.0,93 Z" style="fill:rgb(0,0,0);stroke:none;"/>
  <path d="M457,107 L528.0,93 L522.0,119 Z" style="fill:rgb(0,0,0);stroke:none;"/>
  <path d="M457,107 L524.0,117 L444.0,172 Z" style="fill:rgb(0,0,0);stroke:none;"/>
  <path d="M523,115 L444.0,172 L512.0,153 Z" style="fill:rgb(0,0,0);stroke:none;"/>
  <path d="M444,172 L513.0,151 L481.0,177 Z" style="fill:rgb(0,0,0);stroke:none;"/>
  <path d="M510,151 L481.0,177 L550.0,157 Z" style="fill:rgb(0,0,0);stroke:none;"/>
  <path d="M507,153 L547.0,159 L555.0,121 Z" style="fill:rgb(255,255,255);stroke:none;"/>
  <path d="M481,177 L549.0,156 L541.0,193 Z" style="fill:rgb(0,0,0);stroke:none;"/>
  <path d="M481,177 L544.0,192 L473.0,204 Z" style="fill:rgb(0,0,0);stroke:none;"/>
  <path d="M545,156 L538.0,194 L583.0,164 Z" style="fill:rgb(255,255,255);stroke:none;"/>
  <path d="M543,191 L473.0,204 L503.0,213 Z" style="fill:rgb(0,0,0);stroke:none;"/>
  <path d="M540,190 L503.0,213 L570.0,230 Z" style="fill:rgb(0,0,0);stroke:none;"/>
  <path d="M537,190 L567.0,230 L576.0,196 Z" style="fill:rgb(0,0,0);stroke:none;"/>
  <path d="M503,213 L571.0,228 L500.0,247 Z" style="fill:rgb(0,0,0);stroke:none;"/>
  <path d="M537,192 L575.0,198 L582.0,163 Z" style="fill:rgb(255,255,255);stroke:none;"/>
  <path d="M565,230 L574.0,195 L608.0,200 Z" style="fill:rgb(255,255,255);stroke:none;"/>
  <path d="M573,197 L580.0,163 L608.0,202 Z" style="fill:rgb(0,0,0);stroke:none;"/>
  <path d="M508,154 L556.0,123 L519.0,117 Z" style="fill:rgb(255,255,255);stroke:none;"/>
  <path d="M545,158 L553.0,121 L583.0,167 Z" style="fill:rgb(0,0,0);stroke:none;"/>
  <path d="M556,125 L518.0,119 L528.0,93 Z" style="fill:rgb(0,0,0);stroke:none;"/>
  <path d="M553,125 L528.0,93 L594.0,105 Z" style="fill:rgb(0,0,0);stroke:none;"/>
  <path d="M551,124 L594.0,105 L585.0,129 Z" style="fill:rgb(0,0,0);stroke:none;"/>
  <path d="M552,122 L585.0,127 L581.0,168 Z" style="fill:rgb(0,0,0);stroke:none;"/>
  <path d="M594,105 L583.0,129 L622.0,138 Z" style="fill:rgb(0,0,0);stroke:none;"/>
  <path d="M583,127 L622.0,136 L579.0,167 Z" style="fill:rgb(255,255,255);stroke:none;"/>
  <path d="M622,135 L578.0,166 L612.0,170 Z" style="fill:rgb(255,255,255);stroke:none;"/>
  <path d="M620,134 L610.0,170 L643.0,175 Z" style="fill:rgb(0,0,0);stroke:none;"/>
  <path d="M579,164 L612.0,168 L607.0,203 Z" style="fill:rgb(0,0,0);stroke:none;"/>
  <path d="M610,168 L605.0,203 L644.0,173 Z" style="fill:rgb(255,255,255);stroke:none;"/>
  <path d="M564,229 L607.0,199 L601.0,234 Z" style="fill:rgb(255,255,255);stroke:none;"/>
  <path d="M605,199 L598.0,234 L641.0,210 Z" style="fill:rgb(0,0,0);stroke:none;"/>
  <path d="M604,201 L639.0,212 L643.0,171 Z" style="fill:rgb(255,255,255);stroke:none;"/>
  <path d="M598,233 L640.0,209 L631.0,239 Z" style="fill:rgb(0,0,0);stroke:none;"/>
  <path d="M637,209 L629.0,239 L671.0,217 Z" style="fill:rgb(255,255,255);stroke:none;"/>
  <path d="M637,211 L670.0,219 L641.0,171 Z" style="fill:rgb(0,0,0);stroke:none;"/>
  <path d="M628,238 L670.0,216 L665.0,244 Z" style="fill:rgb(255,255,255);stroke:none;"/>
  <path d="M667,216 L662.0,244 L712.0,254 Z" style="fill:rgb(0,0,0);stroke:none;"/>
  <path d="M617,136 L641.0,176 L685.0,122 Z" style="fill:rgb(0,0,0);stroke:none;"/>
  <path d="M619,138 L685.0,122 L594.0,105 Z" style="fill:rgb(0,0,0);stroke:none;"/>
  <path d="M635,174 L685.0,122 L797.0,202 Z" style="fill:rgb(0,0,0);stroke:none;"/>
  <path d="M568,226 L500.0,247 L585.0,260 Z" style="fill:rgb(0,0,0);stroke:none;"/>
  <path d="M565,227 L585.0,260 L602.0,232 Z" style="fill:rgb(0,0,0);stroke:none;"/>
  <path d="M585,260 L599.0,232 L633.0,237 Z" style="fill:rgb(0,0,0);stroke:none;"/>
  <path d="M585,260 L631.0,236 L655.0,274 Z" style="fill:rgb(0,0,0);stroke:none;"/>
  <path d="M628,236 L655.0,274 L666.0,242 Z" style="fill:rgb(0,0,0);stroke:none;"/>
  <path d="M655,274 L663.0,242 L712.0,254 Z" style="fill:rgb(0,0,0);stroke:none;"/>
  <path d="M655,274 L712.0,254 L713.0,281 Z" style="fill:rgb(0,0,0);stroke:none;"/>
  <path d="M635,171 L797.0,202 L665.0,220 Z" style="fill:rgb(0,0,0);stroke:none;"/>
  <path d="M685,122 L797.0,202 L839.0,148 Z" style="fill:rgb(0,0,0);stroke:none;"/>
  <path d="M797,202 L661.0,218 L762.0,230 Z" style="fill:rgb(0,0,0);stroke:none;"/>
  <path d="M797,202 L762.0,230 L790.0,235 Z" style="fill:rgb(0,0,0);stroke:none;"/>
  <path d="M664,216 L762.0,230 L712.0,254 Z" style="fill:rgb(0,0,0);stroke:none;"/>
  <path d="M762,230 L712.0,254 L757.0,258 Z" style="fill:rgb(0,0,0);stroke:none;"/>
  <path d="M797,202 L839.0,148 L830.0,207 Z" style="fill:rgb(0,0,0);stroke:none;"/>
  <path d="M11,0 L0.0,61 L76.0,11 Z" style="fill:rgb(0,0,0);stroke:none;"/>
  <path d="M0,61 L76.0,11 L67.0,41 Z" style="fill:rgb(0,0,0);stroke:none;"/>
  <path d="M0,61 L67.0,41 L35.0,65 Z" style="fill:rgb(0,0,0);stroke:none;"/>
  <path d="M67,41 L35.0,65 L61.0,73 Z" style="fill:rgb(0,0,0);stroke:none;"/>
  <path d="M35,65 L61.0,73 L29.0,96 Z" style="fill:rgb(8,3,0);stroke:none;"/>
  <path d="M61,73 L29.0,96 L56.0,101 Z" style="fill:rgb(0,0,0);stroke:none;"/>
  <path d="M61,73 L56.0,101 L96.0,79 Z" style="fill:rgb(0,0,0);stroke:none;"/>
  <path d="M61,73 L96.0,79 L102.0,43 Z" style="fill:rgb(255,255,255);stroke:none;"/>
  <path d="M56,101 L96.0,79 L92.0,107 Z" style="fill:rgb(0,0,0);stroke:none;"/>
  <path d="M56,101 L92.0,107 L55.0,131 Z" style="fill:rgb(0,0,0);stroke:none;"/>
  <path d="M92,107 L55.0,131 L84.0,142 Z" style="fill:rgb(0,0,0);stroke:none;"/>
  <path d="M61,73 L102.0,43 L67.0,41 Z" style="fill:rgb(255,255,255);stroke:none;"/>
  <path d="M96,79 L102.0,43 L136.0,51 Z" style="fill:rgb(0,0,0);stroke:none;"/>
  <path d="M102,43 L67.0,41 L76.0,11 Z" style="fill:rgb(0,0,0);stroke:none;"/>
  <path d="M102,43 L76.0,11 L149.0,26 Z" style="fill:rgb(0,0,0);stroke:none;"/>
  <path d="M102,43 L149.0,26 L136.0,51 Z" style="fill:rgb(0,0,0);stroke:none;"/>
  <path d="M149,26 L136.0,51 L215.0,39 Z" style="fill:rgb(0,0,0);stroke:none;"/>
  <path d="M136,51 L158.0,91 L167.0,56 Z" style="fill:rgb(255,255,255);stroke:none;"/>
  <path d="M136,51 L158.0,91 L129.0,88 Z" style="fill:rgb(255,255,255);stroke:none;"/>
  <path d="M167,56 L158.0,91 L191.0,98 Z" style="fill:rgb(0,0,0);stroke:none;"/>
  <path d="M136,51 L129.0,88 L96.0,79 Z" style="fill:rgb(0,0,0);stroke:none;"/>
  <path d="M158,91 L129.0,88 L123.0,112 Z" style="fill:rgb(0,0,0);stroke:none;"/>
  <path d="M136,51 L167.0,56 L215.0,39 Z" style="fill:rgb(0,0,0);stroke:none;"/>
  <path d="M129,88 L96.0,79 L92.0,107 Z" style="fill:rgb(255,255,255);stroke:none;"/>
  <path d="M129,88 L92.0,107 L123.0,112 Z" style="fill:rgb(255,255,255);stroke:none;"/>
  <path d="M92,107 L123.0,112 L116.0,147 Z" style="fill:rgb(0,0,0);stroke:none;"/>
  <path d="M92,107 L116.0,147 L84.0,142 Z" style="fill:rgb(0,0,0);stroke:none;"/>
  <path d="M116,147 L84.0,142 L82.0,170 Z" style="fill:rgb(0,0,0);stroke:none;"/>
  <path d="M116,147 L82.0,170 L150.0,180 Z" style="fill:rgb(0,0,0);stroke:none;"/>
  <path d="M116,147 L150.0,180 L151.0,154 Z" style="fill:rgb(0,0,0);stroke:none;"/>
  <path d="M116,147 L151.0,154 L155.0,121 Z" style="fill:rgb(255,255,255);stroke:none;"/>
  <path d="M116,147 L155.0,121 L123.0,112 Z" style="fill:rgb(255,255,255);stroke:none;"/>
  <path d="M155,121 L123.0,112 L158.0,91 Z" style="fill:rgb(0,0,0);stroke:none;"/>
  <path d="M155,121 L158.0,91 L191.0,98 Z" style="fill:rgb(255,255,255);stroke:none;"/>
  <path d="M155,121 L191.0,98 L184.0,129 Z" style="fill:rgb(255,255,255);stroke:none;"/>
  <path d="M155,121 L184.0,129 L151.0,154 Z" style="fill:rgb(0,0,0);stroke:none;"/>
  <path d="M191,98 L184.0,129 L221.0,128 Z" style="fill:rgb(0,0,0);stroke:none;"/>
  <path d="M184,129 L151.0,154 L178.0,161 Z" style="fill:rgb(0,0,0);stroke:none;"/>
  <path d="M184,129 L178.0,161 L216.0,163 Z" style="fill:rgb(255,255,255);stroke:none;"/>
  <path d="M151,154 L178.0,161 L150.0,180 Z" style="fill:rgb(0,0,0);stroke:none;"/>
  <path d="M178,161 L150.0,180 L214.0,194 Z" style="fill:rgb(0,0,0);stroke:none;"/>
  <path d="M178,161 L214.0,194 L216.0,163 Z" style="fill:rgb(0,0,0);stroke:none;"/>
  <path d="M191,98 L221.0,128 L215.0,39 Z" style="fill:rgb(0,0,0);stroke:none;"/>
  <path d="M191,98 L215.0,39 L167.0,56 Z" style="fill:rgb(0,0,0);stroke:none;"/>
  <path d="M221,128 L390.0,69 L386.0,97 Z" style="fill:rgb(0,0,0);stroke:none;"/>
  <path d="M221,128 L390.0,69 L215.0,39 Z" style="fill:rgb(0,0,0);stroke:none;"/>
  <path d="M221,128 L386.0,97 L377.0,129 Z" style="fill:rgb(0,0,0);stroke:none;"/>
  <path d="M390,69 L386.0,97 L459.0,79 Z" style="fill:rgb(0,0,0);stroke:none;"/>
  <path d="M221,128 L377.0,129 L347.0,154 Z" style="fill:rgb(0,0,0);stroke:none;"/>
  <path d="M221,128 L347.0,154 L345.0,182 Z" style="fill:rgb(0,0,0);stroke:none;"/>
  <path d="M377,129 L347.0,154 L374.0,155 Z" style="fill:rgb(0,0,0);stroke:none;"/>
  <path d="M221,128 L345.0,182 L308.0,182 Z" style="fill:rgb(0,0,0);stroke:none;"/>
  <path d="M221,128 L308.0,182 L305.0,211 Z" style="fill:rgb(0,0,0);stroke:none;"/>
  <path d="M221,128 L305.0,211 L256.0,200 Z" style="fill:rgb(0,0,0);stroke:none;"/>
  <path d="M221,128 L256.0,200 L216.0,163 Z" style="fill:rgb(0,0,0);stroke:none;"/>
  <path d="M221,128 L216.0,163 L184.0,129 Z" style="fill:rgb(255,255,255);stroke:none;"/>
  <path d="M256,200 L216.0,163 L214.0,194 Z" style="fill:rgb(0,0,0);stroke:none;"/>
  <path d="M386,97 L459.0,79 L457.0,107 Z" style="fill:rgb(0,0,0);stroke:none;"/>
  <path d="M459,79 L457.0,107 L528.0,93 Z" style="fill:rgb(0,0,0);stroke:none;"/>
  <path d="M457,107 L528.0,93 L520.0,118 Z" style="fill:rgb(0,0,0);stroke:none;"/>
  <path d="M457,107 L520.0,118 L444.0,172 Z" style="fill:rgb(0,0,0);stroke:none;"/>
  <path d="M520,118 L444.0,172 L510.0,152 Z" style="fill:rgb(0,0,0);stroke:none;"/>
  <path d="M444,172 L510.0,152 L481.0,177 Z" style="fill:rgb(0,0,0);stroke:none;"/>
  <path d="M510,152 L481.0,177 L546.0,157 Z" style="fill:rgb(0,0,0);stroke:none;"/>
  <path d="M510,152 L546.0,157 L554.0,123 Z" style="fill:rgb(255,255,255);stroke:none;"/>
  <path d="M481,177 L546.0,157 L539.0,192 Z" style="fill:rgb(0,0,0);stroke:none;"/>
  <path d="M481,177 L539.0,192 L473.0,204 Z" style="fill:rgb(0,0,0);stroke:none;"/>
  <path d="M546,157 L539.0,192 L581.0,165 Z" style="fill:rgb(255,255,255);stroke:none;"/>
  <path d="M539,192 L473.0,204 L503.0,213 Z" style="fill:rgb(0,0,0);stroke:none;"/>
  <path d="M539,192 L503.0,213 L567.0,228 Z" style="fill:rgb(0,0,0);stroke:none;"/>
  <path d="M539,192 L567.0,228 L574.0,197 Z" style="fill:rgb(0,0,0);stroke:none;"/>
  <path d="M503,213 L567.0,228 L500.0,247 Z" style="fill:rgb(0,0,0);stroke:none;"/>
  <path d="M539,192 L574.0,197 L581.0,165 Z" style="fill:rgb(255,255,255);stroke:none;"/>
  <path d="M567,228 L574.0,197 L606.0,201 Z" style="fill:rgb(255,255,255);stroke:none;"/>
  <path d="M574,197 L581.0,165 L606.0,201 Z" style="fill:rgb(0,0,0);stroke:none;"/>
  <path d="M510,152 L554.0,123 L520.0,118 Z" style="fill:rgb(255,255,255);stroke:none;"/>
  <path d="M546,157 L554.0,123 L581.0,165 Z" style="fill:rgb(0,0,0);stroke:none;"/>
  <path d="M554,123 L520.0,118 L528.0,93 Z" style="fill:rgb(0,0,0);stroke:none;"/>
  <path d="M554,123 L528.0,93 L594.0,105 Z" style="fill:rgb(0,0,0);stroke:none;"/>
  <path d="M554,123 L594.0,105 L584.0,128 Z" style="fill:rgb(0,0,0);stroke:none;"/>
  <path d="M554,123 L584.0,128 L581.0,165 Z" style="fill:rgb(0,0,0);stroke:none;"/>
  <path d="M594,105 L584.0,128 L620.0,137 Z" style="fill:rgb(0,0,0);stroke:none;"/>
  <path d="M584,128 L620.0,137 L581.0,165 Z" style="fill:rgb(255,255,255);stroke:none;"/>
  <path d="M620,137 L581.0,165 L611.0,169 Z" style="fill:rgb(255,255,255);stroke:none;"/>
  <path d="M620,137 L611.0,169 L641.0,174 Z" style="fill:rgb(0,0,0);stroke:none;"/>
  <path d="M581,165 L611.0,169 L606.0,201 Z" style="fill:rgb(0,0,0);stroke:none;"/>
  <path d="M611,169 L606.0,201 L641.0,174 Z" style="fill:rgb(255,255,255);stroke:none;"/>
  <path d="M567,228 L606.0,201 L600.0,233 Z" style="fill:rgb(255,255,255);stroke:none;"/>
  <path d="M606,201 L600.0,233 L638.0,210 Z" style="fill:rgb(0,0,0);stroke:none;"/>
  <path d="M606,201 L638.0,210 L641.0,174 Z" style="fill:rgb(255,255,255);stroke:none;"/>
  <path d="M600,233 L638.0,210 L630.0,238 Z" style="fill:rgb(0,0,0);stroke:none;"/>
  <path d="M638,210 L630.0,238 L669.0,218 Z" style="fill:rgb(255,255,255);stroke:none;"/>
  <path d="M638,210 L669.0,218 L641.0,174 Z" style="fill:rgb(0,0,0);stroke:none;"/>
  <path d="M630,238 L669.0,218 L664.0,243 Z" style="fill:rgb(255,255,255);stroke:none;"/>
  <path d="M669,218 L664.0,243 L712.0,254 Z" style="fill:rgb(0,0,0);stroke:none;"/>
  <path d="M620,137 L641.0,174 L685.0,122 Z" style="fill:rgb(0,0,0);stroke:none;"/>
  <path d="M620,137 L685.0,122 L594.0,105 Z" style="fill:rgb(0,0,0);stroke:none;"/>
  <path d="M641,174 L685.0,122 L797.0,202 Z" style="fill:rgb(0,0,0);stroke:none;"/>
  <path d="M567,228 L500.0,247 L585.0,260 Z" style="fill:rgb(0,0,0);stroke:none;"/>
  <path d="M567,228 L585.0,260 L600.0,233 Z" style="fill:rgb(0,0,0);stroke:none;"/>
  <path d="M585,260 L600.0,233 L630.0,238 Z" style="fill:rgb(0,0,0);stroke:none;"/>
  <path d="M585,260 L630.0,238 L655.0,274 Z" style="fill:rgb(0,0,0);stroke:none;"/>
  <path d="M630,238 L655.0,274 L664.0,243 Z" style="fill:rgb(0,0,0);stroke:none;"/>
  <path d="M655,274 L664.0,243 L712.0,254 Z" style="fill:rgb(0,0,0);stroke:none;"/>
  <path d="M655,274 L712.0,254 L713.0,281 Z" style="fill:rgb(0,0,0);stroke:none;"/>
  <path d="M641,174 L797.0,202 L669.0,218 Z" style="fill:rgb(0,0,0);stroke:none;"/>
  <path d="M685,122 L797.0,202 L839.0,148 Z" style="fill:rgb(0,0,0);stroke:none;"/>
  <path d="M797,202 L669.0,218 L762.0,230 Z" style="fill:rgb(0,0,0);stroke:none;"/>
  <path d="M797,202 L762.0,230 L790.0,235 Z" style="fill:rgb(0,0,0);stroke:none;"/>
  <path d="M669,218 L762.0,230 L712.0,254 Z" style="fill:rgb(0,0,0);stroke:none;"/>
  <path d="M762,230 L712.0,254 L757.0,258 Z" style="fill:rgb(0,0,0);stroke:none;"/>
  <path d="M797,202 L839.0,148 L830.0,207 Z" style="fill:rgb(0,0,0);stroke:none;"/>
</svg>
